ISO-10303-21;
HEADER;
FILE_DESCRIPTION(('ViewDefinition [ReferenceView_V1.2]','ExchangeRequirement [Architecture]'), '2;1');
FILE_NAME('M24_BSP-Boden.ifc','2025-10-12T08:41:48',(''),('',''),'','cadwork version 32.0 Build 331','');
FILE_SCHEMA(('IFC4'));
ENDSEC;
DATA;
#1= IFCPROJECT('2B2cP1dRL9aBs2TYgyQdm5',#7,'Kita Monschau',$,$,$,$,(#16),#11);
#2= IFCPERSON($,'unknown','user',$,$,$,$,$);
#3= IFCORGANIZATION($,'unknown','organization',$,$);
#4= IFCPERSONANDORGANIZATION(#2,#3,$);
#5= IFCORGANIZATION($,'Cadwork Informatik AG, CH - 4051 Basel',$,$,$);
#6= IFCAPPLICATION(#5,'32.0','cadwork version 32.0 Build 331','');
#7= IFCOWNERHISTORY(#4,#6,$,.ADDED.,1760251308,$,$,1760251308);
#9= IFCSIUNIT(*,.LENGTHUNIT.,$,.METRE.);
#10= IFCSIUNIT(*,.PLANEANGLEUNIT.,$,.RADIAN.);
#11= IFCUNITASSIGNMENT((#9,#10,#12,#13,#14,#15));
#12= IFCSIUNIT(*,.MASSUNIT.,.KILO.,.GRAM.);
#13= IFCSIUNIT(*,.AREAUNIT.,$,.SQUARE_METRE.);
#14= IFCSIUNIT(*,.TIMEUNIT.,$,.SECOND.);
#15= IFCSIUNIT(*,.VOLUMEUNIT.,$,.CUBIC_METRE.);
#16= IFCGEOMETRICREPRESENTATIONCONTEXT($,'Model',3,0.00001,#17,#22);
#17= IFCAXIS2PLACEMENT3D(#18,#19,#20);
#18= IFCCARTESIANPOINT((0.,0.,0.));
#19= IFCDIRECTION((0.,0.,1.));
#20= IFCDIRECTION((1.,0.,0.));
#21= IFCGEOMETRICREPRESENTATIONSUBCONTEXT('Body','Model',*,*,*,*,#16,$,.MODEL_VIEW.,$);
#22= IFCDIRECTION((-0.,1.));
#25= IFCSITE('0wUZIiG2D4i8izu8qAKfDr',#7,'Site','IfcSite',$,#26,$,$,.ELEMENT.,$,$,0.,$,#29);
#26= IFCLOCALPLACEMENT($,#27);
#27= IFCAXIS2PLACEMENT3D(#28,#19,#20);
#28= IFCCARTESIANPOINT((0.,0.,0.));
#29= IFCPOSTALADDRESS($,$,$,$,('STRA\X2\00DF\X0\E_BAUVORHABEN'),$,'ORT_BAUVORHABEN','','52156','');
#31= IFCBUILDING('1zItTe$pDA$uzX5MqDpUBF',#7,'Geb\X2\00E4\X0\ude 1','Neubau',$,#32,$,$,.ELEMENT.,$,$,$);
#32= IFCLOCALPLACEMENT(#26,#33);
#33= IFCAXIS2PLACEMENT3D(#34,#19,#20);
#34= IFCCARTESIANPOINT((0.,0.,0.));
#36= IFCBUILDINGSTOREY('3YU2iCvZTFMfj8YmcRyPNd',#7,'Geschoss 1','Neubau',$,#37,$,$,.ELEMENT.,0.);
#37= IFCLOCALPLACEMENT(#32,#38);
#38= IFCAXIS2PLACEMENT3D(#39,#19,#20);
#39= IFCCARTESIANPOINT((0.,0.,0.));
#67= IFCPROPERTYSINGLEVALUE('13-Einbau & Anliefung',$,IFCLABEL('Einbau Werk'),$);
#68= IFCPROPERTYSINGLEVALUE('Group',$,IFCLABEL('0.EG'),$);
#71= IFCPROPERTYSINGLEVALUE('SKU',$,IFCLABEL('M24'),$);
#72= IFCPROPERTYSINGLEVALUE('06-Bauabschnitt',$,IFCLABEL('BA-1'),$);
#79=IFCRELCONTAINEDINSPATIALSTRUCTURE('2T5i$_qsj1XQUew9xSeQpk',#7,$,$,(#1949),#36);
#1845= IFCMATERIAL('BSP-5 lagig',$,'');
#1846=IFCRELASSOCIATESMATERIAL('3wTujsXMLBMw9MZWMzQ2ZA',#7,$,$,(#1949),#1845);
#1854= IFCPROPERTYSINGLEVALUE('05-Abbund/ BVN',$,IFCLABEL('40001'),$);
#1855= IFCPROPERTYSINGLEVALUE('08-Teilgruppe',$,IFCLABEL('Tragwerk'),$);
#1856= IFCPROPERTYSINGLEVALUE('Sichtqualit\X2\00E4\X0\t S1',$,IFCLABEL('NSI'),$);
#1858= IFCPROPERTYSINGLEVALUE('User35',$,IFCLABEL('5'),$);
#1915= IFCPROPERTYSINGLEVALUE('User31',$,IFCLABEL('NSI'),$);
#1949= IFCSLAB('3vyFm6FjX9mhMTaYZ8JVH7',#7,'BSP-Boden','',$,#1950,#1953,$,.NOTDEFINED.);
#1950= IFCLOCALPLACEMENT(#37,#1951);
#1951= IFCAXIS2PLACEMENT3D(#1952,#19,#20);
#1952= IFCCARTESIANPOINT((22.051,16.465,-0.195));
#1953= IFCPRODUCTDEFINITIONSHAPE($,$,(#1954));
#1954= IFCSHAPEREPRESENTATION(#21,'Body','Tessellation',(#1956));
#1955= IFCCARTESIANPOINTLIST3D(((0.258965,1.250123,-0.065),(0.138965,1.250123,-0.065),(0.138965,1.250123,0.065),(0.258965,1.250123,0.065),(0.258965,1.550123,-0.065),(0.258965,1.550123,0.065),(0.138965,1.550123,-0.065),(0.138965,1.550123,0.065),(0.,-1.575,0.065),(0.069,-1.575,0.065),(0.069,-1.575,-0.065),(0.,-1.575,-0.065),(0.069,-1.375,0.065),(0.,-1.375,0.065),(0.,-1.375,-0.065),(0.069,-1.375,-0.065),(1.322997,1.624,-0.065),(5.995576,1.624,-0.065),(5.995576,1.675,-0.065),(6.998576,1.675,-0.065),(6.998576,1.624,-0.065),(9.558,1.624,-0.065),(9.558,-1.624,-0.065),(6.998575,-1.624,-0.065),(6.998575,-1.675,-0.065),(5.995575,-1.675,-0.065),(5.995575,-1.624,-0.065),(0.,-1.624,-0.065),(0.,1.624,-0.065),(0.444997,1.624,-0.065),(0.444997,1.675,-0.065),(1.322997,1.675,-0.065),(0.,1.624,0.065),(0.,-1.624,0.065),(6.998575,-1.6375,0.041),(6.998575,-1.6375,0.065),(5.995575,-1.6375,0.065),(5.995575,-1.6375,0.041),(5.995575,-1.624,0.065),(6.998575,-1.624,0.065),(9.558,-1.624,0.065),(9.558,1.624,0.065),(6.998576,1.624,0.065),(6.998576,1.6375,0.065),(5.995576,1.6375,0.065),(5.995576,1.624,0.065),(1.322997,1.624,0.065),(1.322997,1.6375,0.065),(0.444997,1.6375,0.065),(0.444997,1.624,0.065),(6.998575,-1.675,0.041),(5.995575,-1.675,0.041),(5.995576,1.6375,0.041),(6.998576,1.6375,0.041),(5.995576,1.675,0.041),(6.998576,1.675,0.041),(0.444997,1.6375,0.041),(1.322997,1.6375,0.041),(0.444997,1.675,0.041),(1.322997,1.675,0.041)));
#1956= IFCPOLYGONALFACESET(#1955,.T.,(#1957,#1958,#1959,#1960,#1961,#1962,#1963,#1964,#1965,#1966,#1967,#1968,#1969,#1970,#1971,#1972,#1973,#1974,#1975,#1976,#1977,#1978,#1979,#1980,#1981,#1982,#1983,#1984,#1985,#1986,#1987,#1988),$);
#1957= IFCINDEXEDPOLYGONALFACE((1,2,3,4));
#1958= IFCINDEXEDPOLYGONALFACE((5,1,4,6));
#1959= IFCINDEXEDPOLYGONALFACE((7,5,6,8));
#1960= IFCINDEXEDPOLYGONALFACE((2,7,8,3));
#1961= IFCINDEXEDPOLYGONALFACE((9,10,11,12));
#1962= IFCINDEXEDPOLYGONALFACE((13,14,15,16));
#1963= IFCINDEXEDPOLYGONALFACE((10,13,16,11));
#1964= IFCINDEXEDPOLYGONALFACEWITHVOIDS((17,18,19,20,21,22,23,24,25,26,27,28,12,11,16,15,29,30,31,32),((5,7,2,1)));
#1965= IFCINDEXEDPOLYGONALFACE((15,14,33,29));
#1966= IFCINDEXEDPOLYGONALFACE((9,12,28,34));
#1967= IFCINDEXEDPOLYGONALFACE((35,36,37,38));
#1968= IFCINDEXEDPOLYGONALFACEWITHVOIDS((10,9,34,39,37,36,40,41,42,43,44,45,46,47,48,49,50,33,14,13),((8,6,4,3)));
#1969= IFCINDEXEDPOLYGONALFACE((40,24,23,41));
#1970= IFCINDEXEDPOLYGONALFACE((51,52,26,25));
#1971= IFCINDEXEDPOLYGONALFACE((51,35,38,52));
#1972= IFCINDEXEDPOLYGONALFACE((35,51,25,24,40,36));
#1973= IFCINDEXEDPOLYGONALFACE((27,39,34,28));
#1974= IFCINDEXEDPOLYGONALFACE((53,45,44,54));
#1975= IFCINDEXEDPOLYGONALFACE((17,47,46,18));
#1976= IFCINDEXEDPOLYGONALFACE((55,56,20,19));
#1977= IFCINDEXEDPOLYGONALFACE((55,53,54,56));
#1978= IFCINDEXEDPOLYGONALFACE((53,55,19,18,46,45));
#1979= IFCINDEXEDPOLYGONALFACE((21,43,42,22));
#1980= IFCINDEXEDPOLYGONALFACE((57,49,48,58));
#1981= IFCINDEXEDPOLYGONALFACE((50,30,29,33));
#1982= IFCINDEXEDPOLYGONALFACE((59,60,32,31));
#1983= IFCINDEXEDPOLYGONALFACE((59,57,58,60));
#1984= IFCINDEXEDPOLYGONALFACE((57,59,31,30,50,49));
#1985= IFCINDEXEDPOLYGONALFACE((41,23,22,42));
#1986= IFCINDEXEDPOLYGONALFACE((60,58,48,47,17,32));
#1987= IFCINDEXEDPOLYGONALFACE((56,54,44,43,21,20));
#1988= IFCINDEXEDPOLYGONALFACE((52,38,37,39,27,26));
#1990= IFCPROPERTYSET('15Sum8sULEcQDx6DlpUbQF',#7,'Cadwork3dProperties',$,(#67,#68,#1855,#1991,#71,#1992,#1854,#72,#1856,#1915,#1858));
#1991= IFCPROPERTYSINGLEVALUE('No. production list',$,IFCINTEGER(194),$);
#1992= IFCPROPERTYSINGLEVALUE('04-Bauteil',$,IFCLABEL('Boden'),$);
#1993=IFCRELDEFINESBYPROPERTIES('3w8TNS_fHDZeMplbfUlkLe',#7,$,$,(#1949),#1990);
ENDSEC;
END-ISO-10303-21;
